<svg xmlns="http://www.w3.org/2000/svg" width="320" height="320" viewBox="0 0 320 320">
  <rect width="320" height="320" fill="rgb(255,170,156)" />
  <text x="16" y="32" font-family="system-ui,Helvetica,Arial,sans-serif" font-size="16" font-weight="600" fill="#3C1E14">Aanya Sharma</text>
  <text x="16" y="56" font-family="system-ui,Helvetica,Arial,sans-serif" font-size="13" fill="#3C1E14">Visit: 2026-01-18</text>
  <text x="16" y="76" font-family="system-ui,Helvetica,Arial,sans-serif" font-size="13" fill="#3C1E14">Region: left_cheek</text>
  <text x="16" y="96" font-family="system-ui,Helvetica,Arial,sans-serif" font-size="13" fill="#3C1E14">Severity: Severe</text>
  <circle cx="230" cy="162" r="3" fill="#AA3232" opacity="0.85" /><circle cx="48" cy="209" r="3" fill="#AA3232" opacity="0.85" /><circle cx="161" cy="209" r="5" fill="#AA3232" opacity="0.85" /><circle cx="59" cy="143" r="4" fill="#AA3232" opacity="0.85" /><circle cx="152" cy="227" r="4" fill="#AA3232" opacity="0.85" /><circle cx="186" cy="264" r="3" fill="#AA3232" opacity="0.85" /><circle cx="124" cy="235" r="4" fill="#AA3232" opacity="0.85" /><circle cx="159" cy="155" r="6" fill="#AA3232" opacity="0.85" /><circle cx="204" cy="297" r="4" fill="#AA3232" opacity="0.85" /><circle cx="91" cy="273" r="3" fill="#AA3232" opacity="0.85" /><circle cx="194" cy="186" r="5" fill="#AA3232" opacity="0.85" /><circle cx="207" cy="192" r="7" fill="#AA3232" opacity="0.85" /><circle cx="156" cy="217" r="3" fill="#AA3232" opacity="0.85" /><circle cx="230" cy="215" r="4" fill="#AA3232" opacity="0.85" /><circle cx="261" cy="235" r="4" fill="#AA3232" opacity="0.85" /><circle cx="113" cy="191" r="5" fill="#AA3232" opacity="0.85" /><circle cx="84" cy="224" r="5" fill="#AA3232" opacity="0.85" /><circle cx="129" cy="252" r="6" fill="#AA3232" opacity="0.85" />
</svg>