<svg xmlns="http://www.w3.org/2000/svg" width="320" height="320" viewBox="0 0 320 320">
  <rect width="320" height="320" fill="rgb(255,170,156)" />
  <text x="16" y="32" font-family="system-ui,Helvetica,Arial,sans-serif" font-size="16" font-weight="600" fill="#3C1E14">Astha Mundhra</text>
  <text x="16" y="56" font-family="system-ui,Helvetica,Arial,sans-serif" font-size="13" fill="#3C1E14">Visit: 2026-02-08</text>
  <text x="16" y="76" font-family="system-ui,Helvetica,Arial,sans-serif" font-size="13" fill="#3C1E14">Region: left_cheek</text>
  <text x="16" y="96" font-family="system-ui,Helvetica,Arial,sans-serif" font-size="13" fill="#3C1E14">Severity: Severe</text>
  <circle cx="153" cy="276" r="4" fill="#AA3232" opacity="0.85" /><circle cx="218" cy="287" r="7" fill="#AA3232" opacity="0.85" /><circle cx="182" cy="199" r="7" fill="#AA3232" opacity="0.85" /><circle cx="157" cy="209" r="4" fill="#AA3232" opacity="0.85" /><circle cx="171" cy="197" r="7" fill="#AA3232" opacity="0.85" /><circle cx="174" cy="276" r="3" fill="#AA3232" opacity="0.85" /><circle cx="225" cy="237" r="5" fill="#AA3232" opacity="0.85" /><circle cx="111" cy="286" r="7" fill="#AA3232" opacity="0.85" /><circle cx="197" cy="166" r="6" fill="#AA3232" opacity="0.85" /><circle cx="159" cy="144" r="5" fill="#AA3232" opacity="0.85" /><circle cx="149" cy="203" r="4" fill="#AA3232" opacity="0.85" /><circle cx="262" cy="253" r="6" fill="#AA3232" opacity="0.85" /><circle cx="225" cy="161" r="5" fill="#AA3232" opacity="0.85" /><circle cx="229" cy="195" r="6" fill="#AA3232" opacity="0.85" /><circle cx="148" cy="221" r="5" fill="#AA3232" opacity="0.85" /><circle cx="112" cy="294" r="7" fill="#AA3232" opacity="0.85" /><circle cx="57" cy="194" r="5" fill="#AA3232" opacity="0.85" /><circle cx="270" cy="140" r="6" fill="#AA3232" opacity="0.85" />
</svg>