<svg xmlns="http://www.w3.org/2000/svg" width="320" height="320" viewBox="0 0 320 320">
  <rect width="320" height="320" fill="rgb(255,170,156)" />
  <text x="16" y="32" font-family="system-ui,Helvetica,Arial,sans-serif" font-size="16" font-weight="600" fill="#3C1E14">Astha Mundhra</text>
  <text x="16" y="56" font-family="system-ui,Helvetica,Arial,sans-serif" font-size="13" fill="#3C1E14">Visit: 2026-01-18</text>
  <text x="16" y="76" font-family="system-ui,Helvetica,Arial,sans-serif" font-size="13" fill="#3C1E14">Region: left_cheek</text>
  <text x="16" y="96" font-family="system-ui,Helvetica,Arial,sans-serif" font-size="13" fill="#3C1E14">Severity: Severe</text>
  <circle cx="213" cy="183" r="7" fill="#AA3232" opacity="0.85" /><circle cx="92" cy="223" r="3" fill="#AA3232" opacity="0.85" /><circle cx="190" cy="231" r="7" fill="#AA3232" opacity="0.85" /><circle cx="233" cy="213" r="4" fill="#AA3232" opacity="0.85" /><circle cx="112" cy="256" r="7" fill="#AA3232" opacity="0.85" /><circle cx="133" cy="178" r="4" fill="#AA3232" opacity="0.85" /><circle cx="47" cy="262" r="6" fill="#AA3232" opacity="0.85" /><circle cx="137" cy="282" r="3" fill="#AA3232" opacity="0.85" /><circle cx="236" cy="224" r="3" fill="#AA3232" opacity="0.85" /><circle cx="166" cy="244" r="3" fill="#AA3232" opacity="0.85" /><circle cx="216" cy="188" r="4" fill="#AA3232" opacity="0.85" /><circle cx="202" cy="201" r="7" fill="#AA3232" opacity="0.85" /><circle cx="109" cy="162" r="7" fill="#AA3232" opacity="0.85" /><circle cx="109" cy="216" r="5" fill="#AA3232" opacity="0.85" /><circle cx="68" cy="183" r="4" fill="#AA3232" opacity="0.85" /><circle cx="220" cy="156" r="6" fill="#AA3232" opacity="0.85" /><circle cx="217" cy="223" r="5" fill="#AA3232" opacity="0.85" /><circle cx="59" cy="175" r="7" fill="#AA3232" opacity="0.85" />
</svg>