<svg xmlns="http://www.w3.org/2000/svg" width="320" height="320" viewBox="0 0 320 320">
  <rect width="320" height="320" fill="rgb(255,170,156)" />
  <text x="16" y="32" font-family="system-ui,Helvetica,Arial,sans-serif" font-size="16" font-weight="600" fill="#3C1E14">Aanya Sharma</text>
  <text x="16" y="56" font-family="system-ui,Helvetica,Arial,sans-serif" font-size="13" fill="#3C1E14">Visit: 2026-02-08</text>
  <text x="16" y="76" font-family="system-ui,Helvetica,Arial,sans-serif" font-size="13" fill="#3C1E14">Region: left_cheek</text>
  <text x="16" y="96" font-family="system-ui,Helvetica,Arial,sans-serif" font-size="13" fill="#3C1E14">Severity: Severe</text>
  <circle cx="195" cy="273" r="3" fill="#AA3232" opacity="0.85" /><circle cx="277" cy="228" r="6" fill="#AA3232" opacity="0.85" /><circle cx="216" cy="196" r="5" fill="#AA3232" opacity="0.85" /><circle cx="194" cy="218" r="5" fill="#AA3232" opacity="0.85" /><circle cx="128" cy="227" r="7" fill="#AA3232" opacity="0.85" /><circle cx="247" cy="296" r="7" fill="#AA3232" opacity="0.85" /><circle cx="109" cy="144" r="6" fill="#AA3232" opacity="0.85" /><circle cx="254" cy="177" r="6" fill="#AA3232" opacity="0.85" /><circle cx="263" cy="228" r="3" fill="#AA3232" opacity="0.85" /><circle cx="193" cy="225" r="3" fill="#AA3232" opacity="0.85" /><circle cx="230" cy="205" r="6" fill="#AA3232" opacity="0.85" /><circle cx="95" cy="208" r="3" fill="#AA3232" opacity="0.85" /><circle cx="245" cy="141" r="4" fill="#AA3232" opacity="0.85" /><circle cx="218" cy="281" r="6" fill="#AA3232" opacity="0.85" /><circle cx="274" cy="238" r="4" fill="#AA3232" opacity="0.85" /><circle cx="193" cy="177" r="6" fill="#AA3232" opacity="0.85" /><circle cx="51" cy="288" r="3" fill="#AA3232" opacity="0.85" /><circle cx="239" cy="256" r="3" fill="#AA3232" opacity="0.85" />
</svg>