<svg xmlns="http://www.w3.org/2000/svg" width="320" height="320" viewBox="0 0 320 320">
  <rect width="320" height="320" fill="rgb(255,170,156)" />
  <text x="16" y="32" font-family="system-ui,Helvetica,Arial,sans-serif" font-size="16" font-weight="600" fill="#3C1E14">Aarav Patel</text>
  <text x="16" y="56" font-family="system-ui,Helvetica,Arial,sans-serif" font-size="13" fill="#3C1E14">Visit: 2026-01-18</text>
  <text x="16" y="76" font-family="system-ui,Helvetica,Arial,sans-serif" font-size="13" fill="#3C1E14">Region: left_cheek</text>
  <text x="16" y="96" font-family="system-ui,Helvetica,Arial,sans-serif" font-size="13" fill="#3C1E14">Severity: Severe</text>
  <circle cx="104" cy="185" r="3" fill="#AA3232" opacity="0.85" /><circle cx="114" cy="281" r="7" fill="#AA3232" opacity="0.85" /><circle cx="62" cy="246" r="5" fill="#AA3232" opacity="0.85" /><circle cx="268" cy="266" r="7" fill="#AA3232" opacity="0.85" /><circle cx="128" cy="279" r="3" fill="#AA3232" opacity="0.85" /><circle cx="171" cy="172" r="6" fill="#AA3232" opacity="0.85" /><circle cx="191" cy="184" r="4" fill="#AA3232" opacity="0.85" /><circle cx="136" cy="227" r="4" fill="#AA3232" opacity="0.85" /><circle cx="119" cy="198" r="7" fill="#AA3232" opacity="0.85" /><circle cx="82" cy="236" r="3" fill="#AA3232" opacity="0.85" /><circle cx="262" cy="261" r="4" fill="#AA3232" opacity="0.85" /><circle cx="210" cy="252" r="5" fill="#AA3232" opacity="0.85" /><circle cx="155" cy="277" r="4" fill="#AA3232" opacity="0.85" /><circle cx="97" cy="246" r="7" fill="#AA3232" opacity="0.85" /><circle cx="160" cy="179" r="7" fill="#AA3232" opacity="0.85" /><circle cx="183" cy="163" r="7" fill="#AA3232" opacity="0.85" /><circle cx="43" cy="219" r="5" fill="#AA3232" opacity="0.85" /><circle cx="134" cy="194" r="4" fill="#AA3232" opacity="0.85" />
</svg>