<svg xmlns="http://www.w3.org/2000/svg" width="320" height="320" viewBox="0 0 320 320">
  <rect width="320" height="320" fill="rgb(255,170,156)" />
  <text x="16" y="32" font-family="system-ui,Helvetica,Arial,sans-serif" font-size="16" font-weight="600" fill="#3C1E14">Aarav Patel</text>
  <text x="16" y="56" font-family="system-ui,Helvetica,Arial,sans-serif" font-size="13" fill="#3C1E14">Visit: 2026-02-08</text>
  <text x="16" y="76" font-family="system-ui,Helvetica,Arial,sans-serif" font-size="13" fill="#3C1E14">Region: left_cheek</text>
  <text x="16" y="96" font-family="system-ui,Helvetica,Arial,sans-serif" font-size="13" fill="#3C1E14">Severity: Severe</text>
  <circle cx="245" cy="149" r="3" fill="#AA3232" opacity="0.85" /><circle cx="122" cy="182" r="7" fill="#AA3232" opacity="0.85" /><circle cx="115" cy="266" r="5" fill="#AA3232" opacity="0.85" /><circle cx="192" cy="195" r="6" fill="#AA3232" opacity="0.85" /><circle cx="169" cy="200" r="3" fill="#AA3232" opacity="0.85" /><circle cx="100" cy="141" r="3" fill="#AA3232" opacity="0.85" /><circle cx="227" cy="238" r="6" fill="#AA3232" opacity="0.85" /><circle cx="194" cy="181" r="6" fill="#AA3232" opacity="0.85" /><circle cx="73" cy="277" r="6" fill="#AA3232" opacity="0.85" /><circle cx="172" cy="191" r="5" fill="#AA3232" opacity="0.85" /><circle cx="120" cy="180" r="5" fill="#AA3232" opacity="0.85" /><circle cx="234" cy="200" r="4" fill="#AA3232" opacity="0.85" /><circle cx="269" cy="215" r="7" fill="#AA3232" opacity="0.85" /><circle cx="151" cy="159" r="7" fill="#AA3232" opacity="0.85" /><circle cx="102" cy="150" r="3" fill="#AA3232" opacity="0.85" /><circle cx="95" cy="231" r="4" fill="#AA3232" opacity="0.85" /><circle cx="242" cy="244" r="3" fill="#AA3232" opacity="0.85" /><circle cx="161" cy="267" r="4" fill="#AA3232" opacity="0.85" />
</svg>