<svg xmlns="http://www.w3.org/2000/svg" width="320" height="320" viewBox="0 0 320 320">
  <rect width="320" height="320" fill="rgb(255,170,156)" />
  <text x="16" y="32" font-family="system-ui,Helvetica,Arial,sans-serif" font-size="16" font-weight="600" fill="#3C1E14">Gladston Sequeira</text>
  <text x="16" y="56" font-family="system-ui,Helvetica,Arial,sans-serif" font-size="13" fill="#3C1E14">Visit: 2026-02-08</text>
  <text x="16" y="76" font-family="system-ui,Helvetica,Arial,sans-serif" font-size="13" fill="#3C1E14">Region: left_cheek</text>
  <text x="16" y="96" font-family="system-ui,Helvetica,Arial,sans-serif" font-size="13" fill="#3C1E14">Severity: Severe</text>
  <circle cx="130" cy="297" r="5" fill="#AA3232" opacity="0.85" /><circle cx="200" cy="149" r="4" fill="#AA3232" opacity="0.85" /><circle cx="77" cy="199" r="7" fill="#AA3232" opacity="0.85" /><circle cx="212" cy="183" r="7" fill="#AA3232" opacity="0.85" /><circle cx="117" cy="198" r="6" fill="#AA3232" opacity="0.85" /><circle cx="161" cy="160" r="6" fill="#AA3232" opacity="0.85" /><circle cx="167" cy="152" r="6" fill="#AA3232" opacity="0.85" /><circle cx="81" cy="295" r="6" fill="#AA3232" opacity="0.85" /><circle cx="91" cy="171" r="3" fill="#AA3232" opacity="0.85" /><circle cx="49" cy="290" r="7" fill="#AA3232" opacity="0.85" /><circle cx="55" cy="173" r="3" fill="#AA3232" opacity="0.85" /><circle cx="138" cy="215" r="3" fill="#AA3232" opacity="0.85" /><circle cx="167" cy="276" r="6" fill="#AA3232" opacity="0.85" /><circle cx="55" cy="292" r="6" fill="#AA3232" opacity="0.85" /><circle cx="122" cy="171" r="4" fill="#AA3232" opacity="0.85" /><circle cx="247" cy="249" r="3" fill="#AA3232" opacity="0.85" /><circle cx="259" cy="182" r="4" fill="#AA3232" opacity="0.85" /><circle cx="173" cy="291" r="5" fill="#AA3232" opacity="0.85" />
</svg>