<svg xmlns="http://www.w3.org/2000/svg" width="320" height="320" viewBox="0 0 320 320">
  <rect width="320" height="320" fill="rgb(255,170,156)" />
  <text x="16" y="32" font-family="system-ui,Helvetica,Arial,sans-serif" font-size="16" font-weight="600" fill="#3C1E14">Gladston Sequeira</text>
  <text x="16" y="56" font-family="system-ui,Helvetica,Arial,sans-serif" font-size="13" fill="#3C1E14">Visit: 2026-01-18</text>
  <text x="16" y="76" font-family="system-ui,Helvetica,Arial,sans-serif" font-size="13" fill="#3C1E14">Region: left_cheek</text>
  <text x="16" y="96" font-family="system-ui,Helvetica,Arial,sans-serif" font-size="13" fill="#3C1E14">Severity: Severe</text>
  <circle cx="244" cy="219" r="3" fill="#AA3232" opacity="0.85" /><circle cx="266" cy="259" r="7" fill="#AA3232" opacity="0.85" /><circle cx="239" cy="241" r="3" fill="#AA3232" opacity="0.85" /><circle cx="187" cy="196" r="7" fill="#AA3232" opacity="0.85" /><circle cx="276" cy="189" r="5" fill="#AA3232" opacity="0.85" /><circle cx="111" cy="250" r="3" fill="#AA3232" opacity="0.85" /><circle cx="76" cy="276" r="6" fill="#AA3232" opacity="0.85" /><circle cx="112" cy="249" r="5" fill="#AA3232" opacity="0.85" /><circle cx="103" cy="188" r="3" fill="#AA3232" opacity="0.85" /><circle cx="200" cy="145" r="5" fill="#AA3232" opacity="0.85" /><circle cx="143" cy="227" r="4" fill="#AA3232" opacity="0.85" /><circle cx="203" cy="164" r="4" fill="#AA3232" opacity="0.85" /><circle cx="104" cy="270" r="5" fill="#AA3232" opacity="0.85" /><circle cx="115" cy="296" r="3" fill="#AA3232" opacity="0.85" /><circle cx="135" cy="238" r="6" fill="#AA3232" opacity="0.85" /><circle cx="135" cy="146" r="5" fill="#AA3232" opacity="0.85" /><circle cx="188" cy="233" r="5" fill="#AA3232" opacity="0.85" /><circle cx="228" cy="204" r="4" fill="#AA3232" opacity="0.85" />
</svg>