<svg xmlns="http://www.w3.org/2000/svg" width="320" height="320" viewBox="0 0 320 320">
  <rect width="320" height="320" fill="rgb(255,170,156)" />
  <text x="16" y="32" font-family="system-ui,Helvetica,Arial,sans-serif" font-size="16" font-weight="600" fill="#3C1E14">Anjali Reddy</text>
  <text x="16" y="56" font-family="system-ui,Helvetica,Arial,sans-serif" font-size="13" fill="#3C1E14">Visit: 2026-02-08</text>
  <text x="16" y="76" font-family="system-ui,Helvetica,Arial,sans-serif" font-size="13" fill="#3C1E14">Region: left_cheek</text>
  <text x="16" y="96" font-family="system-ui,Helvetica,Arial,sans-serif" font-size="13" fill="#3C1E14">Severity: Severe</text>
  <circle cx="82" cy="191" r="7" fill="#AA3232" opacity="0.85" /><circle cx="240" cy="196" r="3" fill="#AA3232" opacity="0.85" /><circle cx="155" cy="229" r="7" fill="#AA3232" opacity="0.85" /><circle cx="251" cy="160" r="4" fill="#AA3232" opacity="0.85" /><circle cx="181" cy="259" r="4" fill="#AA3232" opacity="0.85" /><circle cx="148" cy="196" r="5" fill="#AA3232" opacity="0.85" /><circle cx="279" cy="202" r="6" fill="#AA3232" opacity="0.85" /><circle cx="187" cy="209" r="7" fill="#AA3232" opacity="0.85" /><circle cx="135" cy="295" r="6" fill="#AA3232" opacity="0.85" /><circle cx="108" cy="276" r="3" fill="#AA3232" opacity="0.85" /><circle cx="146" cy="187" r="6" fill="#AA3232" opacity="0.85" /><circle cx="254" cy="271" r="6" fill="#AA3232" opacity="0.85" /><circle cx="130" cy="259" r="4" fill="#AA3232" opacity="0.85" /><circle cx="95" cy="156" r="6" fill="#AA3232" opacity="0.85" /><circle cx="142" cy="181" r="3" fill="#AA3232" opacity="0.85" /><circle cx="123" cy="242" r="4" fill="#AA3232" opacity="0.85" /><circle cx="107" cy="155" r="5" fill="#AA3232" opacity="0.85" /><circle cx="246" cy="177" r="5" fill="#AA3232" opacity="0.85" />
</svg>