<svg xmlns="http://www.w3.org/2000/svg" width="320" height="320" viewBox="0 0 320 320">
  <rect width="320" height="320" fill="rgb(255,170,156)" />
  <text x="16" y="32" font-family="system-ui,Helvetica,Arial,sans-serif" font-size="16" font-weight="600" fill="#3C1E14">Anjali Reddy</text>
  <text x="16" y="56" font-family="system-ui,Helvetica,Arial,sans-serif" font-size="13" fill="#3C1E14">Visit: 2026-01-18</text>
  <text x="16" y="76" font-family="system-ui,Helvetica,Arial,sans-serif" font-size="13" fill="#3C1E14">Region: left_cheek</text>
  <text x="16" y="96" font-family="system-ui,Helvetica,Arial,sans-serif" font-size="13" fill="#3C1E14">Severity: Severe</text>
  <circle cx="188" cy="292" r="7" fill="#AA3232" opacity="0.85" /><circle cx="128" cy="154" r="3" fill="#AA3232" opacity="0.85" /><circle cx="73" cy="258" r="3" fill="#AA3232" opacity="0.85" /><circle cx="230" cy="175" r="4" fill="#AA3232" opacity="0.85" /><circle cx="154" cy="262" r="7" fill="#AA3232" opacity="0.85" /><circle cx="92" cy="283" r="7" fill="#AA3232" opacity="0.85" /><circle cx="274" cy="238" r="6" fill="#AA3232" opacity="0.85" /><circle cx="161" cy="162" r="6" fill="#AA3232" opacity="0.85" /><circle cx="95" cy="261" r="4" fill="#AA3232" opacity="0.85" /><circle cx="272" cy="183" r="4" fill="#AA3232" opacity="0.85" /><circle cx="176" cy="299" r="3" fill="#AA3232" opacity="0.85" /><circle cx="57" cy="202" r="3" fill="#AA3232" opacity="0.85" /><circle cx="182" cy="226" r="6" fill="#AA3232" opacity="0.85" /><circle cx="189" cy="151" r="7" fill="#AA3232" opacity="0.85" /><circle cx="102" cy="253" r="6" fill="#AA3232" opacity="0.85" /><circle cx="156" cy="175" r="7" fill="#AA3232" opacity="0.85" /><circle cx="199" cy="217" r="3" fill="#AA3232" opacity="0.85" /><circle cx="196" cy="159" r="6" fill="#AA3232" opacity="0.85" />
</svg>