<svg xmlns="http://www.w3.org/2000/svg" width="320" height="320" viewBox="0 0 320 320">
  <rect width="320" height="320" fill="rgb(255,170,156)" />
  <text x="16" y="32" font-family="system-ui,Helvetica,Arial,sans-serif" font-size="16" font-weight="600" fill="#3C1E14">Arjun Kapoor</text>
  <text x="16" y="56" font-family="system-ui,Helvetica,Arial,sans-serif" font-size="13" fill="#3C1E14">Visit: 2026-02-08</text>
  <text x="16" y="76" font-family="system-ui,Helvetica,Arial,sans-serif" font-size="13" fill="#3C1E14">Region: left_cheek</text>
  <text x="16" y="96" font-family="system-ui,Helvetica,Arial,sans-serif" font-size="13" fill="#3C1E14">Severity: Severe</text>
  <circle cx="208" cy="204" r="7" fill="#AA3232" opacity="0.85" /><circle cx="240" cy="158" r="4" fill="#AA3232" opacity="0.85" /><circle cx="274" cy="261" r="4" fill="#AA3232" opacity="0.85" /><circle cx="264" cy="227" r="7" fill="#AA3232" opacity="0.85" /><circle cx="183" cy="251" r="3" fill="#AA3232" opacity="0.85" /><circle cx="144" cy="275" r="6" fill="#AA3232" opacity="0.85" /><circle cx="106" cy="251" r="6" fill="#AA3232" opacity="0.85" /><circle cx="163" cy="185" r="5" fill="#AA3232" opacity="0.85" /><circle cx="47" cy="291" r="4" fill="#AA3232" opacity="0.85" /><circle cx="134" cy="271" r="4" fill="#AA3232" opacity="0.85" /><circle cx="145" cy="228" r="7" fill="#AA3232" opacity="0.85" /><circle cx="246" cy="215" r="3" fill="#AA3232" opacity="0.85" /><circle cx="206" cy="289" r="6" fill="#AA3232" opacity="0.85" /><circle cx="82" cy="267" r="4" fill="#AA3232" opacity="0.85" /><circle cx="209" cy="281" r="3" fill="#AA3232" opacity="0.85" /><circle cx="260" cy="209" r="6" fill="#AA3232" opacity="0.85" /><circle cx="87" cy="281" r="5" fill="#AA3232" opacity="0.85" /><circle cx="238" cy="211" r="5" fill="#AA3232" opacity="0.85" />
</svg>