<svg xmlns="http://www.w3.org/2000/svg" width="320" height="320" viewBox="0 0 320 320">
  <rect width="320" height="320" fill="rgb(255,170,156)" />
  <text x="16" y="32" font-family="system-ui,Helvetica,Arial,sans-serif" font-size="16" font-weight="600" fill="#3C1E14">Arjun Kapoor</text>
  <text x="16" y="56" font-family="system-ui,Helvetica,Arial,sans-serif" font-size="13" fill="#3C1E14">Visit: 2026-01-18</text>
  <text x="16" y="76" font-family="system-ui,Helvetica,Arial,sans-serif" font-size="13" fill="#3C1E14">Region: left_cheek</text>
  <text x="16" y="96" font-family="system-ui,Helvetica,Arial,sans-serif" font-size="13" fill="#3C1E14">Severity: Severe</text>
  <circle cx="116" cy="178" r="4" fill="#AA3232" opacity="0.85" /><circle cx="75" cy="218" r="6" fill="#AA3232" opacity="0.85" /><circle cx="77" cy="158" r="4" fill="#AA3232" opacity="0.85" /><circle cx="269" cy="242" r="3" fill="#AA3232" opacity="0.85" /><circle cx="220" cy="156" r="5" fill="#AA3232" opacity="0.85" /><circle cx="265" cy="170" r="6" fill="#AA3232" opacity="0.85" /><circle cx="110" cy="233" r="4" fill="#AA3232" opacity="0.85" /><circle cx="238" cy="168" r="7" fill="#AA3232" opacity="0.85" /><circle cx="189" cy="166" r="5" fill="#AA3232" opacity="0.85" /><circle cx="55" cy="241" r="3" fill="#AA3232" opacity="0.85" /><circle cx="121" cy="177" r="7" fill="#AA3232" opacity="0.85" /><circle cx="219" cy="234" r="3" fill="#AA3232" opacity="0.85" /><circle cx="60" cy="207" r="6" fill="#AA3232" opacity="0.85" /><circle cx="217" cy="229" r="6" fill="#AA3232" opacity="0.85" /><circle cx="141" cy="210" r="6" fill="#AA3232" opacity="0.85" /><circle cx="204" cy="272" r="4" fill="#AA3232" opacity="0.85" /><circle cx="121" cy="293" r="4" fill="#AA3232" opacity="0.85" /><circle cx="99" cy="236" r="5" fill="#AA3232" opacity="0.85" />
</svg>