<svg xmlns="http://www.w3.org/2000/svg" width="320" height="320" viewBox="0 0 320 320">
  <rect width="320" height="320" fill="rgb(255,170,156)" />
  <text x="16" y="32" font-family="system-ui,Helvetica,Arial,sans-serif" font-size="16" font-weight="600" fill="#3C1E14">Aditi Gupta</text>
  <text x="16" y="56" font-family="system-ui,Helvetica,Arial,sans-serif" font-size="13" fill="#3C1E14">Visit: 2026-01-18</text>
  <text x="16" y="76" font-family="system-ui,Helvetica,Arial,sans-serif" font-size="13" fill="#3C1E14">Region: left_cheek</text>
  <text x="16" y="96" font-family="system-ui,Helvetica,Arial,sans-serif" font-size="13" fill="#3C1E14">Severity: Severe</text>
  <circle cx="211" cy="143" r="3" fill="#AA3232" opacity="0.85" /><circle cx="120" cy="164" r="5" fill="#AA3232" opacity="0.85" /><circle cx="177" cy="147" r="5" fill="#AA3232" opacity="0.85" /><circle cx="122" cy="172" r="7" fill="#AA3232" opacity="0.85" /><circle cx="91" cy="177" r="7" fill="#AA3232" opacity="0.85" /><circle cx="128" cy="243" r="4" fill="#AA3232" opacity="0.85" /><circle cx="103" cy="188" r="7" fill="#AA3232" opacity="0.85" /><circle cx="250" cy="245" r="4" fill="#AA3232" opacity="0.85" /><circle cx="260" cy="231" r="4" fill="#AA3232" opacity="0.85" /><circle cx="83" cy="181" r="3" fill="#AA3232" opacity="0.85" /><circle cx="244" cy="237" r="3" fill="#AA3232" opacity="0.85" /><circle cx="137" cy="256" r="7" fill="#AA3232" opacity="0.85" /><circle cx="225" cy="260" r="3" fill="#AA3232" opacity="0.85" /><circle cx="202" cy="170" r="7" fill="#AA3232" opacity="0.85" /><circle cx="69" cy="290" r="6" fill="#AA3232" opacity="0.85" /><circle cx="68" cy="258" r="6" fill="#AA3232" opacity="0.85" /><circle cx="148" cy="176" r="4" fill="#AA3232" opacity="0.85" /><circle cx="224" cy="268" r="3" fill="#AA3232" opacity="0.85" />
</svg>