<svg xmlns="http://www.w3.org/2000/svg" width="320" height="320" viewBox="0 0 320 320">
  <rect width="320" height="320" fill="rgb(255,170,156)" />
  <text x="16" y="32" font-family="system-ui,Helvetica,Arial,sans-serif" font-size="16" font-weight="600" fill="#3C1E14">Aditi Gupta</text>
  <text x="16" y="56" font-family="system-ui,Helvetica,Arial,sans-serif" font-size="13" fill="#3C1E14">Visit: 2026-02-08</text>
  <text x="16" y="76" font-family="system-ui,Helvetica,Arial,sans-serif" font-size="13" fill="#3C1E14">Region: left_cheek</text>
  <text x="16" y="96" font-family="system-ui,Helvetica,Arial,sans-serif" font-size="13" fill="#3C1E14">Severity: Severe</text>
  <circle cx="59" cy="259" r="6" fill="#AA3232" opacity="0.85" /><circle cx="89" cy="166" r="3" fill="#AA3232" opacity="0.85" /><circle cx="202" cy="151" r="4" fill="#AA3232" opacity="0.85" /><circle cx="151" cy="275" r="7" fill="#AA3232" opacity="0.85" /><circle cx="152" cy="226" r="5" fill="#AA3232" opacity="0.85" /><circle cx="149" cy="243" r="5" fill="#AA3232" opacity="0.85" /><circle cx="230" cy="144" r="3" fill="#AA3232" opacity="0.85" /><circle cx="123" cy="189" r="6" fill="#AA3232" opacity="0.85" /><circle cx="250" cy="171" r="5" fill="#AA3232" opacity="0.85" /><circle cx="58" cy="286" r="5" fill="#AA3232" opacity="0.85" /><circle cx="170" cy="187" r="3" fill="#AA3232" opacity="0.85" /><circle cx="152" cy="238" r="3" fill="#AA3232" opacity="0.85" /><circle cx="78" cy="244" r="7" fill="#AA3232" opacity="0.85" /><circle cx="212" cy="298" r="6" fill="#AA3232" opacity="0.85" /><circle cx="50" cy="189" r="5" fill="#AA3232" opacity="0.85" /><circle cx="178" cy="252" r="6" fill="#AA3232" opacity="0.85" /><circle cx="235" cy="215" r="4" fill="#AA3232" opacity="0.85" /><circle cx="115" cy="222" r="5" fill="#AA3232" opacity="0.85" />
</svg>