<svg xmlns="http://www.w3.org/2000/svg" width="320" height="320" viewBox="0 0 320 320">
  <rect width="320" height="320" fill="rgb(255,170,156)" />
  <text x="16" y="32" font-family="system-ui,Helvetica,Arial,sans-serif" font-size="16" font-weight="600" fill="#3C1E14">Akash Singh</text>
  <text x="16" y="56" font-family="system-ui,Helvetica,Arial,sans-serif" font-size="13" fill="#3C1E14">Visit: 2026-01-18</text>
  <text x="16" y="76" font-family="system-ui,Helvetica,Arial,sans-serif" font-size="13" fill="#3C1E14">Region: left_cheek</text>
  <text x="16" y="96" font-family="system-ui,Helvetica,Arial,sans-serif" font-size="13" fill="#3C1E14">Severity: Severe</text>
  <circle cx="207" cy="169" r="6" fill="#AA3232" opacity="0.85" /><circle cx="263" cy="162" r="5" fill="#AA3232" opacity="0.85" /><circle cx="75" cy="288" r="7" fill="#AA3232" opacity="0.85" /><circle cx="57" cy="186" r="6" fill="#AA3232" opacity="0.85" /><circle cx="190" cy="150" r="6" fill="#AA3232" opacity="0.85" /><circle cx="245" cy="155" r="4" fill="#AA3232" opacity="0.85" /><circle cx="62" cy="155" r="7" fill="#AA3232" opacity="0.85" /><circle cx="111" cy="295" r="5" fill="#AA3232" opacity="0.85" /><circle cx="160" cy="186" r="4" fill="#AA3232" opacity="0.85" /><circle cx="202" cy="222" r="3" fill="#AA3232" opacity="0.85" /><circle cx="123" cy="191" r="5" fill="#AA3232" opacity="0.85" /><circle cx="270" cy="258" r="3" fill="#AA3232" opacity="0.85" /><circle cx="194" cy="156" r="5" fill="#AA3232" opacity="0.85" /><circle cx="133" cy="260" r="5" fill="#AA3232" opacity="0.85" /><circle cx="180" cy="185" r="3" fill="#AA3232" opacity="0.85" /><circle cx="270" cy="206" r="5" fill="#AA3232" opacity="0.85" /><circle cx="274" cy="221" r="7" fill="#AA3232" opacity="0.85" /><circle cx="124" cy="277" r="3" fill="#AA3232" opacity="0.85" />
</svg>