<svg xmlns="http://www.w3.org/2000/svg" width="320" height="320" viewBox="0 0 320 320">
  <rect width="320" height="320" fill="rgb(255,170,156)" />
  <text x="16" y="32" font-family="system-ui,Helvetica,Arial,sans-serif" font-size="16" font-weight="600" fill="#3C1E14">Akash Singh</text>
  <text x="16" y="56" font-family="system-ui,Helvetica,Arial,sans-serif" font-size="13" fill="#3C1E14">Visit: 2026-02-08</text>
  <text x="16" y="76" font-family="system-ui,Helvetica,Arial,sans-serif" font-size="13" fill="#3C1E14">Region: left_cheek</text>
  <text x="16" y="96" font-family="system-ui,Helvetica,Arial,sans-serif" font-size="13" fill="#3C1E14">Severity: Severe</text>
  <circle cx="84" cy="181" r="7" fill="#AA3232" opacity="0.85" /><circle cx="124" cy="279" r="5" fill="#AA3232" opacity="0.85" /><circle cx="131" cy="264" r="7" fill="#AA3232" opacity="0.85" /><circle cx="138" cy="241" r="5" fill="#AA3232" opacity="0.85" /><circle cx="230" cy="242" r="4" fill="#AA3232" opacity="0.85" /><circle cx="55" cy="162" r="5" fill="#AA3232" opacity="0.85" /><circle cx="253" cy="233" r="4" fill="#AA3232" opacity="0.85" /><circle cx="163" cy="151" r="6" fill="#AA3232" opacity="0.85" /><circle cx="278" cy="243" r="6" fill="#AA3232" opacity="0.85" /><circle cx="236" cy="244" r="5" fill="#AA3232" opacity="0.85" /><circle cx="190" cy="163" r="6" fill="#AA3232" opacity="0.85" /><circle cx="183" cy="218" r="4" fill="#AA3232" opacity="0.85" /><circle cx="179" cy="177" r="6" fill="#AA3232" opacity="0.85" /><circle cx="41" cy="240" r="4" fill="#AA3232" opacity="0.85" /><circle cx="48" cy="202" r="6" fill="#AA3232" opacity="0.85" /><circle cx="207" cy="178" r="6" fill="#AA3232" opacity="0.85" /><circle cx="45" cy="177" r="3" fill="#AA3232" opacity="0.85" /><circle cx="183" cy="228" r="4" fill="#AA3232" opacity="0.85" />
</svg>