<svg xmlns="http://www.w3.org/2000/svg" width="320" height="320" viewBox="0 0 320 320">
  <rect width="320" height="320" fill="rgb(255,170,156)" />
  <text x="16" y="32" font-family="system-ui,Helvetica,Arial,sans-serif" font-size="16" font-weight="600" fill="#3C1E14">Avani Joshi</text>
  <text x="16" y="56" font-family="system-ui,Helvetica,Arial,sans-serif" font-size="13" fill="#3C1E14">Visit: 2026-02-08</text>
  <text x="16" y="76" font-family="system-ui,Helvetica,Arial,sans-serif" font-size="13" fill="#3C1E14">Region: left_cheek</text>
  <text x="16" y="96" font-family="system-ui,Helvetica,Arial,sans-serif" font-size="13" fill="#3C1E14">Severity: Severe</text>
  <circle cx="249" cy="216" r="6" fill="#AA3232" opacity="0.85" /><circle cx="215" cy="182" r="5" fill="#AA3232" opacity="0.85" /><circle cx="274" cy="260" r="3" fill="#AA3232" opacity="0.85" /><circle cx="237" cy="257" r="4" fill="#AA3232" opacity="0.85" /><circle cx="157" cy="269" r="6" fill="#AA3232" opacity="0.85" /><circle cx="117" cy="234" r="6" fill="#AA3232" opacity="0.85" /><circle cx="128" cy="178" r="7" fill="#AA3232" opacity="0.85" /><circle cx="90" cy="199" r="5" fill="#AA3232" opacity="0.85" /><circle cx="246" cy="200" r="4" fill="#AA3232" opacity="0.85" /><circle cx="230" cy="234" r="5" fill="#AA3232" opacity="0.85" /><circle cx="84" cy="242" r="6" fill="#AA3232" opacity="0.85" /><circle cx="264" cy="189" r="5" fill="#AA3232" opacity="0.85" /><circle cx="66" cy="217" r="5" fill="#AA3232" opacity="0.85" /><circle cx="180" cy="180" r="5" fill="#AA3232" opacity="0.85" /><circle cx="66" cy="203" r="3" fill="#AA3232" opacity="0.85" /><circle cx="95" cy="142" r="7" fill="#AA3232" opacity="0.85" /><circle cx="116" cy="199" r="4" fill="#AA3232" opacity="0.85" /><circle cx="88" cy="164" r="5" fill="#AA3232" opacity="0.85" />
</svg>