<svg xmlns="http://www.w3.org/2000/svg" width="320" height="320" viewBox="0 0 320 320">
  <rect width="320" height="320" fill="rgb(255,170,156)" />
  <text x="16" y="32" font-family="system-ui,Helvetica,Arial,sans-serif" font-size="16" font-weight="600" fill="#3C1E14">Avani Joshi</text>
  <text x="16" y="56" font-family="system-ui,Helvetica,Arial,sans-serif" font-size="13" fill="#3C1E14">Visit: 2026-01-18</text>
  <text x="16" y="76" font-family="system-ui,Helvetica,Arial,sans-serif" font-size="13" fill="#3C1E14">Region: left_cheek</text>
  <text x="16" y="96" font-family="system-ui,Helvetica,Arial,sans-serif" font-size="13" fill="#3C1E14">Severity: Severe</text>
  <circle cx="132" cy="210" r="5" fill="#AA3232" opacity="0.85" /><circle cx="85" cy="191" r="5" fill="#AA3232" opacity="0.85" /><circle cx="252" cy="243" r="4" fill="#AA3232" opacity="0.85" /><circle cx="234" cy="226" r="6" fill="#AA3232" opacity="0.85" /><circle cx="264" cy="297" r="5" fill="#AA3232" opacity="0.85" /><circle cx="237" cy="167" r="3" fill="#AA3232" opacity="0.85" /><circle cx="153" cy="159" r="7" fill="#AA3232" opacity="0.85" /><circle cx="123" cy="285" r="3" fill="#AA3232" opacity="0.85" /><circle cx="208" cy="233" r="7" fill="#AA3232" opacity="0.85" /><circle cx="153" cy="242" r="3" fill="#AA3232" opacity="0.85" /><circle cx="154" cy="258" r="6" fill="#AA3232" opacity="0.85" /><circle cx="249" cy="239" r="6" fill="#AA3232" opacity="0.85" /><circle cx="130" cy="273" r="6" fill="#AA3232" opacity="0.85" /><circle cx="244" cy="215" r="5" fill="#AA3232" opacity="0.85" /><circle cx="189" cy="193" r="6" fill="#AA3232" opacity="0.85" /><circle cx="201" cy="259" r="7" fill="#AA3232" opacity="0.85" /><circle cx="136" cy="192" r="5" fill="#AA3232" opacity="0.85" /><circle cx="56" cy="215" r="5" fill="#AA3232" opacity="0.85" />
</svg>